<svg width="412" height="303" viewBox="0 0 412 303" fill="none" xmlns="http://www.w3.org/2000/svg">
<path d="M212.816 119.745C212.295 121.1 211.958 122.49 211.812 123.905C211.648 125.468 211.691 127.039 211.989 128.596C212.168 129.528 212.394 130.457 212.735 131.365C214.33 135.564 217.502 138.903 221.68 140.774C223.953 141.793 226.368 142.306 228.849 142.306C231.934 142.306 234.885 141.464 237.462 140.001C238.856 139.211 240.135 138.24 241.262 137.093C242.269 136.071 243.139 134.906 243.861 133.639C244.068 133.274 244.304 132.925 244.483 132.538C244.483 132.538 278.793 59.8463 278.867 59.6985C278.938 59.5416 279.902 56.7604 280.106 55.6413C281.453 48.3172 277.681 40.7366 270.421 37.4818C268.154 36.4622 265.739 35.9494 263.258 35.9494C258.03 35.9494 253.168 38.3023 249.94 42.1393C249.033 43.2223 248.234 44.4017 247.624 45.7079C247.627 45.6958 247.63 45.6837 247.636 45.6747L247.618 45.7109C247.614 45.7139 247.611 45.723 247.605 45.729L213.24 118.554C213.06 118.943 212.964 119.347 212.816 119.745Z" fill="#999999"/>
<path d="M228.292 39.702C229.02 40.4139 229.494 41.343 229.841 42.3595C230.655 44.7697 230.519 47.8556 229.844 50.9838C229.497 52.5795 229.032 54.1632 228.475 55.6624C228.264 56.2385 228.05 56.8207 227.812 57.3637C227.462 58.1932 227 59.1585 226.468 60.1781C221.81 69.1523 209.824 84.2349 181.675 85.17C181.659 85.17 181.637 85.173 181.622 85.173L169.893 108.961C177.221 110.648 190.263 114.635 201.567 123.229L239.801 42.2087C240.426 40.8875 240.792 39.527 241.043 38.1545C242.381 30.8213 238.618 23.2378 231.358 19.989C229.085 18.9754 226.669 18.4566 224.195 18.4566C218.967 18.4566 214.107 20.8065 210.883 24.6465C209.967 25.7294 209.167 26.9119 208.548 28.2181C208.554 28.206 208.554 28.2 208.567 28.1879L208.548 28.2181L208.539 28.2392L203.707 38.4803H227.035L228.292 39.702Z" fill="#999999"/>
<path d="M183.028 38.4773H187.215H194.239L200.703 24.7551C201.322 23.4339 201.691 22.0704 201.939 20.7009C203.28 13.3738 199.517 5.79024 192.257 2.53843C189.978 1.52487 187.568 1 185.091 1C179.863 1 175 3.3559 171.776 7.19292C170.869 8.27585 170.067 9.45833 169.45 10.7675C169.45 10.7735 169.438 10.7796 169.438 10.7856L156.39 38.4773H170.68H183.028Z" fill="#999999"/>
<path d="M200.733 24.7123L200.742 24.6918L200.733 24.7123L200.719 24.7505L200.733 24.7123Z" fill="#999999"/>
<path d="M274.978 87.9965H274.977V87.9976L274.978 87.9965Z" fill="#999999"/>
<path d="M242.145 137.503L242.154 137.492L242.148 137.494L242.145 137.503Z" fill="#999999"/>
<path d="M242.161 137.47L242.155 137.481V137.484L242.161 137.47Z" fill="#999999"/>
<path d="M304.802 101.378C304.802 99.4955 303.724 95.6012 303.681 95.565C301.25 89.185 294.994 84.621 287.604 84.621C286.052 84.621 284.572 84.8865 283.141 85.2635C280.654 85.9151 278.409 87.0946 276.498 88.6752C274.256 90.5364 272.528 92.9134 271.496 95.6585C271.484 95.6947 271.478 95.7369 271.459 95.7731L249.968 140.991H249.975C249.34 142.339 249.021 143.745 248.946 145.145C248.922 145.645 248.946 146.14 248.987 146.629C249.315 150.565 251.737 154.224 255.676 155.989C257.547 156.831 259.563 157.081 261.53 156.885C264.094 156.625 266.569 155.582 268.473 153.88C269.387 153.063 270.143 152.07 270.737 150.978L281.902 127.489L289.71 130.997L290.484 129.359L278.895 153.923L278.877 153.959C278.685 154.366 278.452 154.74 278.223 155.123C277.743 155.962 277.21 156.776 276.619 157.533C275.408 159.099 273.955 160.45 272.348 161.585C269.232 163.796 265.494 165.153 261.527 165.346C261.183 165.367 260.852 165.409 260.514 165.409H260.511C257.59 165.409 254.753 164.8 252.077 163.606C248.076 161.808 245.004 158.882 242.984 155.401C242.012 153.72 241.321 151.911 240.885 150.028C240.72 149.325 240.587 148.623 240.504 147.902C239.172 148.565 237.803 149.144 236.363 149.576C233.96 150.294 231.429 150.686 228.852 150.686C228.852 150.686 228.852 150.686 228.849 150.686C225.861 150.686 223.863 150.167 221.073 149.187C222.658 154.242 223.646 159.829 223.646 166.17V197.922H215.046V166.17C215.046 158.565 212.605 152.125 210.097 146.629C198.346 120.852 164.789 116.394 163.077 116.186L157.149 115.462L176.183 76.8444H178.893C179.612 76.8444 180.225 76.7569 180.913 76.7388C182.579 76.6906 184.239 76.6393 185.769 76.4855C202.174 74.8294 211.174 67.3816 215.931 60.9956C216.343 60.4436 216.703 59.8886 217.065 59.3426C217.907 58.0575 218.61 56.8027 219.202 55.5779C219.88 54.1813 220.407 52.845 220.803 51.6173C221.407 49.7229 221.726 48.0759 221.819 46.8572H150.654C142.137 46.8572 134.692 51.2553 130.523 57.8373C129.551 59.3757 128.752 61.0228 128.163 62.7693L105.808 109.465L104.659 111.866C103.557 114.527 102.934 117.429 102.934 120.478C102.934 124.647 104.09 128.548 106.075 131.923L108.494 135.302L163.43 206.163V302.643H266.659V302.652H275.259L275.265 231.435L302.585 177.267C302.969 176.595 303.337 175.922 303.628 175.195C304.347 173.403 304.765 171.47 304.799 169.44C304.805 169.337 304.802 101.378 304.802 101.378Z" fill="#999999"/>
<path d="M88.5151 206.044V181.921L28.0744 125.995L88.5151 70.0682V45.9412L2 125.995L88.5151 206.044Z" fill="black"/>
<path d="M324.99 206.044V181.921L385.431 125.995L324.99 70.0682V45.9412L411.505 125.995L324.99 206.044Z" fill="black"/>
</svg>
