<svg width="132" height="168" viewBox="0 0 132 168" fill="none" xmlns="http://www.w3.org/2000/svg">
<path d="M128.541 57.8721H113.667V37.2943C113.667 16.7299 99.2856 0 81.6092 0H50.3874C32.7127 0 18.3331 16.7299 18.3331 37.2943V57.8721H3.45755C1.54786 57.8721 0 59.4199 0 61.3296V164.059C0 165.971 1.54786 167.517 3.45755 167.517H128.542C130.454 167.517 132 165.971 132 164.059V61.3296C131.998 59.4199 130.452 57.8721 128.541 57.8721ZM25.2465 37.2943C25.2465 20.5426 36.5237 6.91342 50.3874 6.91342H81.6076C95.4729 6.91342 106.752 20.5426 106.752 37.2943V57.8721H99.8384V37.2943C99.8384 24.3536 91.6619 13.8285 81.6076 13.8285H50.3874C40.3364 13.8285 32.1599 24.3553 32.1599 37.2943V57.8721H25.2465V37.2943V37.2943ZM39.075 57.8721V37.2943C39.075 28.4762 44.3618 20.7419 50.3874 20.7419H81.6076C87.6365 20.7419 92.9233 28.4762 92.9233 37.2943V57.8721H39.075V57.8721ZM125.085 160.604H6.91342V64.7872H21.7889H35.6175H96.3809H110.209H125.083V160.604H125.085Z" fill="#FFA700"/>
<path d="M65.9984 80.9006C57.7448 80.9006 51.0291 87.6164 51.0291 95.8733C51.0291 98.8166 51.937 101.72 53.6122 104.192L51.0492 127.591C50.9436 128.566 51.2569 129.543 51.9119 130.275C52.5685 131.003 53.5033 131.422 54.4866 131.422H77.5135C78.4951 131.422 79.4315 131.003 80.0865 130.275C80.7449 129.543 81.0581 128.566 80.9509 127.591L78.3879 104.192C80.0631 101.721 80.971 98.8182 80.971 95.8733C80.971 87.6164 74.2519 80.9006 65.9984 80.9006ZM73.6589 124.507H58.3445L60.6345 103.586C60.7367 102.651 60.4536 101.716 59.8488 100.993C58.9794 99.9523 57.9425 98.2202 57.9425 95.8716C57.9425 91.4291 61.5558 87.8124 65.9967 87.8124C70.4392 87.8124 74.0559 91.4274 74.0559 95.8716C74.0559 98.2219 73.019 99.9523 72.1479 100.993C71.5465 101.715 71.2634 102.651 71.3639 103.586L73.6589 124.507Z" fill="#FFA700"/>
</svg>
