<svg width="132" height="129" viewBox="0 0 132 129" fill="none" xmlns="http://www.w3.org/2000/svg">
<path d="M50.7272 31.4703C51.1855 32.2341 51.6438 32.998 52.2549 33.609C53.0188 34.6784 54.0881 35.595 55.1575 36.5116C55.4631 36.8172 55.7686 36.9699 56.0741 37.1227L56.2269 36.9699C64.1708 29.026 72.2676 20.9293 80.2115 12.9853C78.6838 10.8466 76.8506 9.01333 74.5591 7.63842C67.379 14.6658 51.6438 30.5537 50.7272 31.4703ZM85.4056 11.4576C88.6138 9.01333 92.5857 7.48565 96.8633 7.18011C97.016 7.18011 97.016 7.18011 97.1688 7.18011C97.1688 7.18011 97.1688 7.18011 97.3216 7.18011C97.4743 7.18011 97.4743 7.18011 97.6271 7.18011C105.877 7.48565 113.515 12.9853 115.807 21.082C117.945 29.026 115.043 37.7338 108.168 42.4696C101.446 47.0526 92.1274 46.8999 85.7112 41.8585C84.3363 40.7891 83.1141 39.567 82.0447 38.1921C78.0728 42.3168 72.5731 44.9139 66.7679 45.0667C60.3516 45.2194 54.0881 42.7751 49.5051 38.1921C48.2829 39.7198 46.7553 41.2474 45.0748 42.3168C38.353 46.8999 29.0341 46.7471 22.6179 41.7057C16.2016 36.8172 13.1462 27.8038 15.8961 20.1654C18.7987 12.527 25.6732 7.48565 33.77 7.02734C33.9227 7.02734 33.9227 7.02734 34.0755 7.02734C34.0755 7.02734 34.0755 7.02734 34.2283 7.02734C34.381 7.02734 34.381 7.02734 34.5338 7.02734C38.8113 7.18011 42.7833 8.70779 46.1442 11.1521C50.2689 4.58305 57.449 0.458305 65.393 0C65.5458 0 65.6985 0 65.6985 0H65.8513H66.0041C73.6425 0.152768 80.8226 4.12474 84.7946 10.6938C85.1001 10.9993 85.2529 11.3049 85.4056 11.4576ZM60.6572 39.2615C65.6985 40.7891 71.351 40.0253 75.7812 36.8172C77.1562 35.9006 78.2255 34.8312 79.2949 33.609C79.906 32.6924 80.5171 31.7758 81.1281 30.8592C82.1975 28.8732 82.8086 26.7345 83.1141 24.5957C83.4196 22.6097 83.2669 20.471 82.8086 18.3322C82.8086 18.0267 82.6558 17.7211 82.503 17.4156C81.1281 18.7905 66.6151 33.3035 60.6572 39.2615ZM69.6705 5.65243C68.4484 5.34689 67.0734 5.19412 65.6985 5.19412C59.1295 5.34689 52.7132 9.31887 49.9634 15.2768C49.8106 15.7351 49.6579 16.0407 49.5051 16.499C49.1996 17.11 49.0468 17.8739 48.894 18.485C48.2829 21.2348 48.2829 23.9846 48.894 26.5817C49.5051 25.8178 64.1708 11.1521 69.6705 5.65243ZM46.1442 34.0673C43.0888 28.7204 42.325 22.3042 44.0054 16.499C41.4084 14.0547 38.0475 12.527 34.2283 12.527C33.6172 12.527 33.1589 12.527 32.5478 12.6798C25.0622 14.0547 19.4097 20.471 20.1736 28.1094C20.9374 35.595 27.6592 41.4002 35.1449 40.7891C39.7279 40.3308 43.8527 37.7338 46.1442 34.0673Z" fill="#1B8D80"/>
<path d="M54.0882 122.52C56.2269 120.381 87.85 88.7584 95.7939 80.8145C95.9467 80.6617 95.9467 80.6617 96.0994 80.5089C94.8773 78.0646 93.6551 75.7731 92.1275 73.4816C87.5444 78.0646 47.2136 118.395 44.7693 120.84C47.8247 121.604 51.0328 122.062 54.0882 122.52ZM54.6992 127.714C51.1856 127.256 47.5191 126.645 44.1582 125.881C37.5892 124.201 30.4091 121.145 27.2009 115.187C23.9928 114.882 20.7847 114.423 17.7293 113.812C9.47982 111.979 0.313721 107.702 0.00818402 98.0773C-0.144584 88.9112 1.8414 79.5923 5.96615 71.3428C9.32705 64.7738 14.0629 58.8158 20.1736 54.6911C24.1456 51.9412 28.8814 49.6497 33.9227 49.6497C38.9641 49.497 44.311 51.4829 48.283 54.3855C48.894 54.8438 49.6579 55.4549 50.269 55.9132C54.5465 53.1634 59.2823 51.1774 64.3236 50.7191C67.379 50.5663 70.2816 50.8719 73.1842 51.7885C76.0868 52.7051 78.9894 54.08 81.5865 55.7605C82.0448 55.4549 82.6558 54.9966 83.1141 54.6911C87.0861 51.9412 91.8219 49.6497 96.8633 49.6497C101.905 49.497 107.252 51.4829 111.224 54.3855C117.334 58.8158 122.376 64.4682 125.889 71.19C130.014 79.2868 132 88.1473 132 97.3134V97.9245C132 99.7577 131.542 101.438 130.931 102.966C130.32 104.494 129.25 106.938 127.875 108.007C121.612 113.201 113.057 114.576 105.266 115.34C105.113 115.34 104.96 115.34 104.807 115.34C103.891 117.173 102.821 119.007 101.294 120.229C98.2382 122.673 94.5718 124.353 90.7525 125.423C84.7946 127.103 78.3783 128.02 72.1148 128.325C70.8927 128.325 69.6705 128.478 68.4484 128.478C63.8653 128.325 59.2823 128.173 54.6992 127.714ZM32.3951 90.7444C33.0061 90.1333 33.6172 89.5222 34.2283 88.9112C41.2556 81.8838 64.6292 58.5103 67.5318 55.6077C64.9347 55.6077 62.1849 55.7604 59.4351 56.6771C57.7546 57.2881 56.0742 58.052 54.5465 58.9686C53.7826 59.4269 53.0188 59.8852 52.4077 60.3435C51.6439 60.8018 51.0328 61.4129 50.269 61.8712C41.1029 69.0513 35.1449 79.8978 32.3951 90.7444ZM60.5044 122.979C64.1709 123.131 67.6845 123.284 71.351 123.131C74.4063 120.076 95.3356 99.1467 100.53 93.9525C99.9187 91.0499 99.1548 88.1473 98.2382 85.3975C96.5578 87.078 94.8773 88.7584 93.3496 90.2861C87.5444 95.7857 64.4764 119.007 60.5044 122.979ZM89.3776 69.5096C87.85 67.5236 86.0167 65.6904 84.1835 64.0099C84.1835 64.0099 84.0307 64.0099 84.0307 63.8572C80.3643 67.5236 35.9087 111.979 35.1449 112.743C34.5338 113.354 33.9227 113.965 33.3117 114.576C33.4644 114.882 33.77 115.035 34.0755 115.34C35.1449 116.409 36.367 117.326 37.8947 118.09C38.5058 118.395 39.2696 118.701 40.0335 119.007C41.1029 117.632 82.3503 76.3842 89.3776 69.5096ZM101.752 107.091C101.752 104.646 101.599 102.202 101.294 99.7577C97.9327 103.271 81.2809 119.77 78.8366 122.367C80.6698 122.062 82.5031 121.756 84.3363 121.451C87.85 120.687 91.5164 119.923 94.5718 118.243C95.6411 117.632 96.8633 117.021 97.7799 116.257C98.0854 115.951 98.391 115.646 98.6965 115.34C99.1548 114.882 99.4604 114.271 99.7659 113.66C99.9187 113.354 100.071 113.049 100.224 112.743C100.683 111.979 100.988 111.063 101.294 110.146C101.599 109.229 101.752 108.16 101.752 107.091ZM80.0588 60.9546L79.7532 60.649C78.9894 60.1907 78.2256 59.7324 77.4617 59.2741C75.934 58.3575 74.4063 57.7464 72.8787 57.1354C71.0454 58.9686 39.7279 90.2861 30.8674 99.2994C30.5618 102.202 30.2563 105.105 30.5618 107.854C30.5618 108.618 30.7146 109.535 31.0201 110.299C36.2143 104.799 78.5311 62.4823 80.0588 60.9546ZM42.0195 62.4823C43.2416 61.2601 44.6165 60.038 45.9914 58.8158C43.2416 56.8298 40.0335 55.3022 36.6726 54.8438C32.7006 54.2328 28.7286 55.4549 25.215 57.4409C19.8681 60.649 15.4378 65.2321 12.2296 70.4262C7.6466 77.9119 5.35507 86.6197 5.04954 95.4802C5.04954 97.7717 5.04954 100.216 6.42445 102.202C7.6466 104.035 9.32705 105.257 11.1603 106.174C14.3684 107.702 18.0348 108.618 21.7013 109.229C22.9234 109.382 24.1456 109.688 25.5205 109.84C24.9094 105.716 25.3677 101.285 25.9788 97.1607C26.1316 96.5496 26.1316 96.0913 26.2843 95.4802C27.0482 91.0499 28.1176 86.7724 29.6452 82.4949C32.3951 75.0093 36.5198 68.1347 42.0195 62.4823Z" fill="#1B8D80"/>
</svg>
