<svg width="132" height="127" viewBox="0 0 132 127" fill="none" xmlns="http://www.w3.org/2000/svg">
<path d="M132 39.072C132 38.94 132 38.808 132 38.676V38.016C132 37.884 132 37.884 132 37.752C131.736 27.852 127.776 18.48 120.648 11.484L120.516 11.352C113.124 4.092 103.356 0 92.928 0C82.764 0 73.26 3.828 66 10.824C58.74 3.828 49.236 0 39.072 0C28.644 0 18.876 4.092 11.352 11.484C4.356 18.48 0.396 27.72 0.132 37.62C0 37.62 0 37.752 0 37.884V72.072C0 72.864 0.264 73.524 0.792 74.052L34.584 107.844V123.816C34.584 125.4 35.772 126.588 37.356 126.588C38.94 126.588 40.128 125.4 40.128 123.816V106.656C40.128 105.864 39.864 105.204 39.336 104.676L5.544 71.016V41.184C8.844 42.372 11.22 45.408 11.22 49.104V64.152C11.22 64.944 11.484 65.604 12.012 66.132L17.292 71.412L34.716 88.836C35.244 89.364 35.904 89.628 36.696 89.628C37.356 89.628 38.148 89.364 38.676 88.836C39.732 87.78 39.732 86.064 38.676 84.876L23.364 69.564C24.024 69.3 24.684 69.036 25.476 69.036C27.192 69.036 28.776 69.564 30.096 70.62L51.876 90.156V123.684C51.876 125.268 53.064 126.456 54.648 126.456C56.232 126.456 57.42 125.268 57.42 123.684V112.596L64.152 118.668C64.68 119.196 65.34 119.328 66 119.328C66.66 119.328 67.32 119.064 67.848 118.668L74.58 112.728V123.816C74.58 125.4 75.768 126.588 77.352 126.588C78.936 126.588 80.124 125.4 80.124 123.816V90.288L102.036 70.752C103.224 69.696 104.94 69.036 106.656 69.168C107.448 69.168 108.108 69.432 108.768 69.696L93.324 84.876C92.268 85.932 92.268 87.648 93.324 88.836C93.852 89.364 94.512 89.628 95.304 89.628C95.964 89.628 96.756 89.364 97.284 88.836L114.708 71.412L119.988 66.132C120.516 65.604 120.78 64.944 120.78 64.152V49.104C120.78 45.408 123.156 42.372 126.456 41.184V71.016L92.664 104.808C92.136 105.336 91.872 105.996 91.872 106.788V123.948C91.872 125.532 93.06 126.72 94.644 126.72C96.228 126.72 97.416 125.532 97.416 123.948V107.976L131.208 74.316C131.736 73.788 132 73.128 132 72.336V39.732C132 39.468 132 39.204 132 39.072ZM119.328 39.336C116.688 41.976 115.236 45.408 115.236 49.236V63.096L112.596 65.736C110.88 64.548 108.9 63.888 106.788 63.756C103.62 63.624 100.584 64.68 98.208 66.792L75.504 86.988C74.976 87.516 74.58 88.308 74.58 89.1V105.336L66 112.86L57.42 105.204V88.968C57.42 88.176 57.024 87.384 56.496 86.856L33.66 66.528C31.284 64.416 28.248 63.36 25.08 63.492C22.968 63.624 20.988 64.284 19.272 65.472L16.632 62.832V49.104C16.632 42.504 11.88 36.828 5.676 35.508C6.468 27.984 9.768 20.856 15.312 15.312C21.648 8.976 29.964 5.544 38.94 5.544C47.916 5.544 56.232 8.976 62.568 15.312L63.888 16.632C64.944 17.688 66.66 17.688 67.848 16.632L69.168 15.312C75.504 8.976 83.82 5.544 92.796 5.544C101.772 5.544 110.088 8.976 116.424 15.312L116.556 15.444C121.968 20.988 125.268 27.984 126.06 35.64C123.684 36.168 121.308 37.356 119.328 39.336Z" fill="#1B6B8D"/>
</svg>
