<svg width="133" height="130" viewBox="0 0 133 130" fill="none" xmlns="http://www.w3.org/2000/svg">
<path d="M113.87 28.7528H111.456C114.222 26.5111 116.155 23.4209 116.949 19.9704C117.744 16.5199 117.353 12.9059 115.841 9.69937C114.328 6.49285 111.779 3.87665 108.596 2.26414C105.414 0.651638 101.779 0.134764 98.2664 0.795189C94.9846 1.36387 91.9694 2.94803 89.6546 5.31988C87.3398 7.69174 85.8445 10.7291 85.3838 13.9952C84.942 16.7384 85.2367 19.5485 86.2386 22.1434C87.2404 24.7382 88.9141 27.0267 91.0916 28.7792H90.5582C87.3414 28.7793 84.181 29.6159 81.3936 31.2051C78.6061 32.7942 76.2892 35.0803 74.675 37.8344L71.0342 44.078L61.8991 38.6C59.6862 37.3176 57.0555 36.9395 54.5655 37.5458C52.0755 38.1521 49.9223 39.6951 48.563 41.8472C47.8793 42.9394 47.4216 44.1553 47.2164 45.424C47.0113 46.6928 47.0628 47.9893 47.368 49.2382C47.6732 50.4871 48.226 51.6636 48.9943 52.6993C49.7627 53.735 50.7312 54.6094 51.8437 55.2716L68.2337 65.1716C70.5452 66.5206 73.2652 67.0142 75.9099 66.5646C78.5545 66.1151 80.9523 64.7514 82.6766 62.7164V78.8336C82.6766 79.7088 83.0279 80.5482 83.6531 81.167C84.2783 81.7859 85.1264 82.1336 86.0106 82.1336C86.8948 82.1336 87.7429 81.7859 88.3681 81.167C88.9934 80.5482 89.3446 79.7088 89.3446 78.8336V53.186C89.3448 52.4988 89.1284 51.8288 88.7254 51.2693C88.3224 50.7097 87.7529 50.2887 87.0966 50.0649C86.4402 49.8411 85.7296 49.8256 85.064 50.0207C84.3983 50.2158 83.8108 50.6117 83.3834 51.1532L77.6623 58.4C76.9684 59.274 75.9779 59.8694 74.8744 60.0757C73.7709 60.2821 72.6292 60.0853 71.661 59.522L55.2844 49.556C54.9289 49.3488 54.6181 49.0744 54.3697 48.7484C54.1213 48.4223 53.9403 48.0511 53.8369 47.6558C53.7335 47.2605 53.7097 46.8489 53.767 46.4445C53.8243 46.0401 53.9616 45.6509 54.1708 45.299C54.3801 44.9471 54.6574 44.6395 54.9868 44.3936C55.3162 44.1478 55.6913 43.9686 56.0906 43.8662C56.49 43.7639 56.9058 43.7404 57.3144 43.7971C57.7229 43.8538 58.1162 43.9896 58.4717 44.1968L70.4741 51.4568C70.8543 51.6863 71.2771 51.8381 71.7175 51.9032C72.1579 51.9683 72.607 51.9454 73.0384 51.8359C73.4697 51.7264 73.8745 51.5325 74.2289 51.2656C74.5833 50.9987 74.8801 50.6643 75.1017 50.282L80.4361 41.1212C81.4591 39.37 82.9289 37.9155 84.6982 36.9032C86.4676 35.8908 88.4745 35.3562 90.5182 35.3528H92.732C94.0522 35.353 95.3372 34.9308 96.3952 34.149C97.4531 33.3672 98.2273 32.2677 98.6023 31.0148C98.9773 29.7618 98.9329 28.4223 98.4758 27.1963C98.0187 25.9704 97.1734 24.9235 96.066 24.212C94.5448 23.2356 93.3438 21.8418 92.6096 20.201C91.8755 18.5601 91.6399 16.7431 91.9318 14.972C92.2037 13.0744 93.0751 11.3106 94.4213 9.93304C95.7676 8.55548 97.5196 7.6348 99.4266 7.30279C101.567 6.89322 103.784 7.23134 105.701 8.25947C107.617 9.2876 109.114 10.942 109.935 12.9405C110.756 14.939 110.852 17.1576 110.205 19.218C109.558 21.2783 108.209 23.0527 106.388 24.2384C105.285 24.9534 104.444 26.002 103.992 27.228C103.539 28.454 103.499 29.7919 103.877 31.0425C104.254 32.2931 105.03 33.3895 106.088 34.1685C107.146 34.9476 108.43 35.3676 109.749 35.366H113.843C117.064 35.3695 120.152 36.6375 122.43 38.8919C124.707 41.1463 125.988 44.203 125.992 47.3912V72.7352C125.992 73.5404 125.669 74.3126 125.094 74.882C124.518 75.4513 123.738 75.7712 122.925 75.7712C122.111 75.7712 121.331 75.4513 120.756 74.882C120.181 74.3126 119.857 73.5404 119.857 72.7352V52.9352C119.857 52.06 119.506 51.2206 118.881 50.6017C118.256 49.9829 117.408 49.6352 116.523 49.6352C115.639 49.6352 114.791 49.9829 114.166 50.6017C113.541 51.2206 113.189 52.06 113.189 52.9352V72.7352C113.189 74.0006 113.441 75.2536 113.93 76.4227C114.42 77.5918 115.137 78.6541 116.041 79.5489C116.945 80.4437 118.018 81.1534 119.199 81.6377C120.38 82.1219 121.646 82.3712 122.925 82.3712C124.203 82.3712 125.469 82.1219 126.65 81.6377C127.831 81.1534 128.905 80.4437 129.809 79.5489C130.713 78.6541 131.43 77.5918 131.919 76.4227C132.408 75.2536 132.66 74.0006 132.66 72.7352V47.378C132.657 42.4439 130.677 37.7125 127.154 34.2212C123.632 30.7298 118.854 28.7633 113.87 28.7528V28.7528Z" fill="#D50000"/>
<path d="M3.99404 129.469C4.87827 129.469 5.72629 129.121 6.35154 128.502C6.97679 127.883 7.32805 127.044 7.32805 126.169V122.499C7.33157 120.277 8.22491 118.147 9.81227 116.576C11.3996 115.005 13.5516 114.121 15.7964 114.117C17.1295 114.114 18.4263 113.687 19.4952 112.898C20.5642 112.11 21.3487 111.002 21.7328 109.739C22.117 108.475 22.0805 107.123 21.6287 105.881C21.1769 104.64 20.3338 103.575 19.2238 102.844C18.0661 102.074 17.1168 101.035 16.4589 99.8178C15.8009 98.6005 15.4544 97.2421 15.4497 95.8616C15.4977 93.6812 16.3789 91.5999 17.9157 90.0372C19.4525 88.4744 21.5307 87.5463 23.7314 87.44C25.5829 87.3821 27.4032 87.922 28.9174 88.9781C30.4316 90.0343 31.5576 91.5495 32.1253 93.2948C32.6929 95.0401 32.6716 96.9209 32.0643 98.6531C31.457 100.385 30.2969 101.875 28.759 102.897C27.6541 103.631 26.8162 104.696 26.3686 105.936C25.9209 107.176 25.8872 108.526 26.2724 109.786C26.6576 111.047 27.4414 112.152 28.5084 112.939C29.5753 113.725 30.8693 114.152 32.1997 114.157C34.4446 114.16 36.5965 115.044 38.1839 116.616C39.7713 118.187 40.6646 120.317 40.6681 122.539V126.208C40.6681 127.084 41.0194 127.923 41.6446 128.542C42.2699 129.161 43.1179 129.508 44.0021 129.508C44.8864 129.508 45.7344 129.161 46.3596 128.542C46.9849 127.923 47.3361 127.084 47.3361 126.208V122.499C47.3397 120.277 48.233 118.147 49.8204 116.576C51.4077 115.005 53.5596 114.121 55.8045 114.117C57.1376 114.114 58.4344 113.687 59.5033 112.898C60.5723 112.11 61.3568 111.002 61.7409 109.739C62.1251 108.475 62.0886 107.123 61.6368 105.881C61.185 104.64 60.3418 103.575 59.2319 102.844C58.0759 102.074 57.1285 101.034 56.4729 99.8166C55.8172 98.5991 55.4732 97.2411 55.4711 95.8616C55.5191 93.6812 56.4003 91.5999 57.9371 90.0372C59.4739 88.4744 61.5521 87.5463 63.7528 87.44C65.6043 87.3821 67.4246 87.922 68.9388 88.9781C70.453 90.0343 71.579 91.5495 72.1467 93.2948C72.7144 95.0401 72.693 96.9209 72.0857 98.6531C71.4785 100.385 70.3183 101.875 68.7805 102.897C67.6755 103.631 66.8376 104.696 66.39 105.936C65.9424 107.176 65.9087 108.526 66.2939 109.786C66.679 111.047 67.4628 112.152 68.5298 112.939C69.5968 113.725 70.8907 114.152 72.2212 114.157C74.466 114.16 76.6179 115.044 78.2053 116.616C79.7927 118.187 80.686 120.317 80.6895 122.539V126.208C80.6895 127.084 81.0408 127.923 81.666 128.542C82.2913 129.161 83.1393 129.508 84.0235 129.508C84.9078 129.508 85.7558 129.161 86.381 128.542C87.0063 127.923 87.3575 127.084 87.3575 126.208V122.499C87.3611 120.277 88.2544 118.147 89.8418 116.576C91.4291 115.005 93.5811 114.121 95.8259 114.117C97.159 114.114 98.4558 113.687 99.5247 112.898C100.594 112.11 101.378 111.002 101.762 109.739C102.146 108.475 102.11 107.123 101.658 105.881C101.206 104.64 100.363 103.575 99.2533 102.844C98.0948 102.075 97.1449 101.036 96.4868 99.8186C95.8288 98.6011 95.4828 97.2423 95.4792 95.8616C95.5272 93.6812 96.4084 91.5999 97.9452 90.0372C99.482 88.4744 101.56 87.5463 103.761 87.44C105.612 87.3821 107.433 87.922 108.947 88.9781C110.461 90.0343 111.587 91.5495 112.155 93.2948C112.722 95.0401 112.701 96.9209 112.094 98.6531C111.487 100.385 110.326 101.875 108.789 102.897C107.684 103.631 106.846 104.696 106.398 105.936C105.95 107.176 105.917 108.526 106.302 109.786C106.687 111.047 107.471 112.152 108.538 112.939C109.605 113.725 110.899 114.152 112.229 114.157C114.474 114.16 116.626 115.044 118.213 116.616C119.801 118.187 120.694 120.317 120.698 122.539V126.208C120.698 127.084 121.049 127.923 121.674 128.542C122.299 129.161 123.147 129.508 124.032 129.508C124.916 129.508 125.764 129.161 126.389 128.542C127.014 127.923 127.366 127.084 127.366 126.208V122.499C127.361 118.753 125.94 115.144 123.384 112.381C120.827 109.619 117.319 107.903 113.55 107.57C116.008 105.618 117.793 102.959 118.658 99.9599C119.524 96.9608 119.428 93.7696 118.383 90.8269C117.338 87.8843 115.395 85.3355 112.824 83.5324C110.252 81.7293 107.179 80.7609 104.028 80.7609C100.876 80.7609 97.8027 81.7293 95.2313 83.5324C92.6599 85.3355 90.7175 87.8843 89.6724 90.8269C88.6273 93.7696 88.5309 96.9608 89.3967 99.9599C90.2625 102.959 92.0476 105.618 94.5057 107.57C92.4664 107.747 90.4847 108.332 88.6806 109.29C86.8766 110.247 85.2877 111.557 84.0102 113.14C82.7343 111.559 81.1475 110.249 79.3458 109.292C77.5441 108.335 75.565 107.749 73.5281 107.57C75.9819 105.619 77.7633 102.962 78.6264 99.9655C79.4896 96.9695 79.3919 93.7821 78.347 90.8433C77.302 87.9044 75.3612 85.3591 72.7925 83.5586C70.2238 81.758 67.1538 80.791 64.0062 80.791C60.8585 80.791 57.7885 81.758 55.2198 83.5586C52.6511 85.3591 50.7103 87.9044 49.6653 90.8433C48.6204 93.7821 48.5227 96.9695 49.3859 99.9655C50.2491 102.962 52.0305 105.619 54.4842 107.57C52.4473 107.749 50.4682 108.335 48.6665 109.292C46.8648 110.249 45.2781 111.559 44.0021 113.14C42.7262 111.559 41.1394 110.249 39.3377 109.292C37.5361 108.335 35.5569 107.749 33.52 107.57C35.9738 105.619 37.7552 102.962 38.6183 99.9655C39.4815 96.9695 39.3839 93.7821 38.3389 90.8433C37.2939 87.9044 35.3532 85.3591 32.7844 83.5586C30.2157 81.758 27.1457 80.791 23.9981 80.791C20.8505 80.791 17.7804 81.758 15.2117 83.5586C12.643 85.3591 10.7022 87.9044 9.65727 90.8433C8.6123 93.7821 8.51466 96.9695 9.37781 99.9655C10.241 102.962 12.0224 105.619 14.4762 107.57C10.7063 107.903 7.19839 109.619 4.64188 112.381C2.08536 115.144 0.665045 118.753 0.660034 122.499V126.169C0.660034 127.044 1.01129 127.883 1.63654 128.502C1.94613 128.809 2.31367 129.052 2.71817 129.218C3.12267 129.383 3.55621 129.469 3.99404 129.469V129.469Z" fill="#D50000"/>
<path d="M11.5289 7.13125H79.5426C80.4269 7.13125 81.2749 6.78357 81.9001 6.1647C82.5254 5.54583 82.8766 4.70646 82.8766 3.83125C82.8766 2.95604 82.5254 2.11667 81.9001 1.4978C81.2749 0.878928 80.4269 0.53125 79.5426 0.53125H11.5289C8.64968 0.534734 5.88921 1.66747 3.85205 3.68138C1.81489 5.69529 0.667089 8.42621 0.660034 11.2761V63.1917C0.663563 66.0438 1.80981 68.7781 3.84735 70.7948C5.88489 72.8116 8.64738 73.9462 11.5289 73.9497H59.712C60.5962 73.9497 61.4442 73.602 62.0695 72.9831C62.6947 72.3642 63.046 71.5249 63.046 70.6497C63.046 69.7744 62.6947 68.9351 62.0695 68.3162C61.4442 67.6973 60.5962 67.3497 59.712 67.3497H11.5289C10.4148 67.3497 9.34626 66.9116 8.55845 66.1318C7.77064 65.352 7.32805 64.2944 7.32805 63.1917V11.2761C7.33158 10.1756 7.77572 9.12135 8.56315 8.34443C9.35058 7.56751 10.4171 7.13124 11.5289 7.13125V7.13125Z" fill="#D50000"/>
</svg>
