<svg width="132" height="159" viewBox="0 0 132 159" fill="none" xmlns="http://www.w3.org/2000/svg">
<path d="M40.0119 99.2471C40.8147 98.1231 40.333 96.5174 39.209 95.8751C38.085 95.0723 36.4793 95.554 35.8371 96.678C33.5891 100.05 31.3411 106.954 36.3188 111.129C36.8005 111.45 37.2822 111.611 37.9245 111.611C38.5667 111.611 39.3696 111.29 39.8513 110.647C40.6541 109.523 40.4936 108.078 39.5302 107.115C36.4793 104.867 40.0119 99.2471 40.0119 99.2471Z" fill="#8D1B66"/>
<path d="M33.589 49.6312C30.8594 51.0763 28.9325 53.806 28.1297 57.4991C27.8086 58.7836 28.6114 60.0682 30.0565 60.3893C30.2171 60.3893 30.3777 60.3893 30.5382 60.3893C31.6622 60.3893 32.6256 59.5865 32.9468 58.4625C33.4285 56.054 34.3919 54.6089 35.9976 53.806C38.5667 52.3609 42.0992 53.4849 42.2598 53.4849C43.5443 53.9666 44.9895 53.3243 45.4712 52.0397C45.9529 50.7552 45.3106 49.3101 44.026 48.8284C43.7049 48.9889 38.2456 47.0621 33.589 49.6312Z" fill="#8D1B66"/>
<path d="M40.0118 66.9727C39.8512 67.1333 37.1216 70.1841 30.2171 70.3447C28.9325 70.3447 27.8086 71.4687 27.8086 72.9138C27.8086 74.1984 28.9325 75.3223 30.2171 75.3223C31.9834 75.3223 33.4285 75.1618 34.713 74.8406C35.0342 80.3 28.772 83.5114 28.4508 83.6719C27.1663 84.3142 26.6846 85.7593 27.3269 86.8833C27.8086 87.8467 28.6114 88.3284 29.5748 88.3284C29.896 88.3284 30.2171 88.3284 30.6988 88.1679C34.5525 86.4016 40.9752 81.1028 39.6907 73.3955C42.4203 71.9504 43.8655 70.5053 43.8655 70.3447C44.6683 69.2207 44.5077 67.7756 43.5443 66.9727C42.4203 65.6882 40.9752 65.8488 40.0118 66.9727Z" fill="#8D1B66"/>
<path d="M23.7943 77.0886C14.8024 74.0378 9.50366 77.4097 9.34309 77.5703C8.21911 78.2126 7.89797 79.8182 8.54025 80.9422C9.02195 81.7451 9.8248 82.0662 10.6276 82.0662C11.1094 82.0662 11.4305 81.9056 11.9122 81.7451C12.0728 81.5845 15.6053 79.6577 22.1886 81.9056C23.4732 82.3874 24.9183 81.5845 25.2394 80.3C25.7211 79.0154 25.0789 77.5703 23.7943 77.0886Z" fill="#8D1B66"/>
<path d="M90.1093 114.822C101.189 108.078 99.5829 96.1962 96.6927 89.7734C102.313 80.9421 96.3715 70.8263 91.3939 65.6881C92.839 61.995 92.9996 58.4625 91.8756 55.0905C89.4671 48.186 82.2415 44.0113 79.5118 42.7267C77.9061 38.3913 74.3736 35.6617 69.2354 34.6982C62.652 33.4137 55.2659 35.9828 51.2516 41.2816L49.4854 43.5295L47.7191 41.2816C43.5443 35.9828 36.3187 33.4137 29.7354 34.6982C24.7577 35.6617 21.2252 38.3913 19.4589 42.7267C16.7293 44.0113 9.50366 48.186 7.09512 55.0905C5.81057 58.4625 5.97114 62.1556 7.57683 65.6881C2.59919 70.9869 -3.34187 81.1027 2.27805 89.7734C-0.772763 96.3568 -2.37845 108.239 8.70081 114.822C10.4671 117.231 17.8533 127.025 28.9325 125.58C30.6988 126.704 34.3919 128.792 38.7272 128.792C39.5301 128.792 40.4935 128.631 41.2963 128.471C44.6683 127.668 47.2374 125.58 49.3248 122.208C51.4122 125.58 54.1419 127.828 57.3532 128.471C58.1561 128.631 59.1195 128.792 59.9224 128.792C64.2577 128.792 67.9508 126.704 69.7171 125.58C80.9569 127.186 88.5037 117.391 90.1093 114.822ZM46.9163 117.552C46.4346 117.712 46.1134 118.034 45.9528 118.515C44.5077 121.406 42.5809 123.172 40.3329 123.654C35.9976 124.617 31.1805 121.084 31.1805 120.924C30.6988 120.442 29.8959 120.282 29.2537 120.442C25.7211 121.084 22.5098 120.121 19.7801 118.515C20.4224 117.07 21.2252 115.946 22.3492 115.304C24.9183 113.859 28.4508 114.983 28.6114 114.983C29.8959 115.464 31.3411 114.822 31.8228 113.538C32.3045 112.253 31.6622 110.808 30.3776 110.326C30.2171 110.166 24.7577 108.399 20.1012 110.808C18.335 111.771 17.0504 113.217 15.9264 115.143C14.3207 113.698 13.3573 112.253 12.8756 111.611C11.9122 107.275 13.839 104.867 13.839 104.706C14.8024 103.743 14.6419 102.137 13.6785 101.174C12.715 100.853 11.1094 100.853 10.1459 101.816C9.98537 101.977 8.21911 104.064 7.7374 107.597C3.5626 102.619 5.00772 96.3568 6.13171 92.9848C8.21911 94.1088 11.4305 95.2328 14.6419 95.2328C16.5687 95.2328 18.4955 94.7511 20.2618 93.6271C21.3858 92.8243 21.7069 91.3791 20.9041 90.2552C20.1012 89.1312 18.6561 88.81 17.5321 89.6129C14.4813 91.7003 9.02195 89.1312 6.77398 87.686C0.51179 79.1759 11.2699 68.7389 12.0728 67.936C12.2333 67.7755 14.3207 66.3304 19.2984 68.4178C19.6195 68.5783 19.9406 68.5783 20.2618 68.5783C21.2252 68.5783 22.1886 67.936 22.5098 67.1332C22.9915 65.8486 22.5098 64.4035 21.2252 63.9218C16.8898 62.1556 13.839 62.3161 11.7516 62.9584C11.1094 60.871 10.9488 58.7836 11.7516 56.6962C13.0362 53.1637 16.2476 50.434 18.8167 48.6678L18.6561 52.2003C18.6561 53.4848 19.6195 54.7694 21.0646 54.7694C21.0646 54.7694 21.0646 54.7694 21.2252 54.7694C22.5098 54.7694 23.6337 53.806 23.6337 52.3608L23.9549 44.9747C24.9183 41.9239 27.1663 40.1576 30.6988 39.5153C35.5159 38.5519 40.9752 40.4787 43.8654 44.3324L47.0768 48.3466V117.552H46.9163ZM69.7171 120.603C69.0748 120.442 68.2719 120.603 67.7902 121.084C67.7902 121.084 62.9732 124.778 58.6378 123.814C56.3898 123.332 54.463 121.566 53.0179 118.676C52.8573 118.194 52.3756 117.873 52.0545 117.712V48.3466L55.2659 44.3324C58.3167 40.4787 63.6154 38.5519 68.4325 39.5153C72.1256 40.1576 74.3736 42.0844 75.1764 45.2958C75.337 45.9381 75.8187 46.5804 76.6215 46.9015C76.7821 46.9015 85.1317 50.5946 87.2191 56.8568C88.1825 59.5865 87.8614 62.3161 86.2557 65.2064C85.774 66.1698 85.9345 67.4543 86.7374 68.0966C87.2191 68.5783 98.7801 79.497 91.8756 88.1678C91.2333 88.9706 91.2333 89.934 91.715 90.8974C92.0362 91.3791 98.7801 104.546 87.2191 111.129C86.898 111.29 86.5768 111.611 86.4163 111.932C86.2557 111.771 79.3512 122.53 69.7171 120.603Z" fill="#8D1B66"/>
<path d="M85.4528 75.0011C81.9203 71.4686 75.6581 71.4686 72.1256 75.0011L71.8045 75.3223L71.4833 75.0011C67.9508 71.4686 61.6886 71.4686 58.1561 75.0011C56.3898 76.7674 55.4264 79.1759 55.4264 81.5845C55.4264 84.1536 56.3898 86.4015 58.1561 88.1678L70.0382 100.05C70.5199 100.532 71.1622 100.692 71.8045 100.692C72.4467 100.692 73.089 100.371 73.5707 100.05L85.4528 88.1678C87.2191 86.4015 88.1825 83.993 88.1825 81.5845C88.1825 79.1759 87.2191 76.7674 85.4528 75.0011ZM81.9203 84.7958L71.8045 94.9117L61.6886 84.7958C60.8858 83.993 60.4041 82.869 60.4041 81.5845C60.4041 80.4605 60.8858 79.3365 61.6886 78.3731C62.4915 77.5702 63.6154 77.0885 64.9 77.0885C66.024 77.0885 67.148 77.5702 68.1114 78.3731L69.5565 79.8182C70.1988 80.4605 71.1622 80.621 71.965 80.4605C72.7679 80.7816 73.7313 80.4605 74.3736 79.8182L75.8187 78.3731C77.4244 76.7674 80.4752 76.7674 82.0809 78.3731C82.8837 79.1759 83.3654 80.2999 83.3654 81.5845C83.3654 82.869 82.8837 83.993 81.9203 84.7958Z" fill="#8D1B66"/>
<path d="M62.6521 21.6922H62.8126C64.0972 21.5316 65.2212 20.4076 65.0606 19.1231L63.9366 2.26331C63.776 0.978754 62.6521 -0.145229 61.3675 0.0153397C60.083 0.175909 58.959 1.29989 59.1195 2.58445L60.4041 19.2836C60.4041 20.7288 61.5281 21.6922 62.6521 21.6922Z" fill="#8D1B66"/>
<path d="M74.3736 20.7288C74.5342 20.7288 74.6948 20.7288 74.6948 20.7288C75.8187 20.7288 76.9427 19.926 77.1033 18.6414L78.3878 10.613C78.5484 9.32842 77.7456 8.04387 76.3004 7.8833C75.0159 7.72273 73.7313 8.52557 73.4102 9.9707L72.1256 17.9991C72.1256 19.2837 73.0891 20.5683 74.3736 20.7288Z" fill="#8D1B66"/>
<path d="M49.8065 21.6923C50.2882 22.6557 51.0911 23.1374 52.0545 23.1374C52.3756 23.1374 52.6968 23.1374 53.0179 22.9768C54.3024 22.4951 54.7842 21.05 54.3024 19.7654L50.9305 12.2187C50.4488 10.9341 49.0037 10.4524 47.7191 10.9341C46.4346 11.4159 45.9529 12.861 46.4346 14.1455L49.8065 21.6923Z" fill="#8D1B66"/>
<path d="M131.857 68.0967C131.376 66.8122 130.091 66.1699 128.807 66.491L112.91 71.6292C111.626 72.1109 110.983 73.3955 111.305 74.68C111.626 75.6435 112.589 76.4463 113.713 76.4463C114.034 76.4463 114.195 76.4463 114.516 76.2857L130.412 71.1475C131.536 70.6658 132.339 69.3813 131.857 68.0967Z" fill="#8D1B66"/>
<path d="M116.603 90.0947L124.632 89.4524C125.916 89.2918 127.04 88.1678 126.88 86.7227C126.719 85.4382 125.595 84.3142 124.15 84.4748L116.122 85.117C114.837 85.2776 113.713 86.4016 113.874 87.8467C114.034 89.1313 114.998 90.0947 116.282 90.0947C116.603 90.0947 116.603 90.0947 116.603 90.0947Z" fill="#8D1B66"/>
<path d="M108.093 62.1556C106.969 62.9584 106.809 64.5641 107.611 65.6881C108.093 66.3304 108.896 66.6515 109.538 66.6515C110.02 66.6515 110.662 66.4909 110.983 66.1698L117.567 61.1922C118.691 60.3893 118.851 58.7836 118.048 57.6596C117.246 56.5357 115.64 56.3751 114.676 57.1779L108.093 62.1556Z" fill="#8D1B66"/>
<path d="M87.8614 140.032C87.3797 138.747 85.9346 138.105 84.65 138.747C83.3655 139.229 82.7232 140.674 83.3655 141.958L89.7882 157.373C90.1094 158.337 91.0728 158.979 92.0362 158.979C92.3574 158.979 92.6785 158.979 92.9996 158.818C94.2842 158.337 94.9265 156.891 94.2842 155.607L87.8614 140.032Z" fill="#8D1B66"/>
<path d="M74.0525 143.082C72.7679 143.243 71.8045 144.528 71.9651 145.973L73.2496 154.001C73.4102 155.286 74.5342 156.089 75.6582 156.089C75.8187 156.089 75.9793 156.089 75.9793 156.089C77.2639 155.928 78.2273 154.643 78.0667 153.198L76.7822 145.17C76.6216 143.725 75.337 142.761 74.0525 143.082Z" fill="#8D1B66"/>
<path d="M97.1745 134.733C96.211 133.769 94.7659 133.609 93.6419 134.572C92.6785 135.536 92.518 136.981 93.4814 138.105L98.9407 144.206C99.4224 144.688 100.065 145.009 100.707 145.009C101.349 145.009 101.831 144.849 102.313 144.367C103.276 143.404 103.437 141.958 102.473 140.835L97.1745 134.733Z" fill="#8D1B66"/>
<path d="M126.559 122.048L111.786 114.18C110.662 113.538 109.057 114.019 108.414 115.143C107.772 116.267 108.254 117.873 109.378 118.515L124.15 126.383C124.471 126.544 124.953 126.704 125.274 126.704C126.237 126.704 127.04 126.223 127.522 125.42C128.325 124.135 127.843 122.53 126.559 122.048Z" fill="#8D1B66"/>
<path d="M106.487 125.099C105.524 124.135 103.918 124.296 102.955 125.259C101.991 126.223 102.152 127.828 103.276 128.792L109.378 134.091C109.859 134.572 110.341 134.733 110.983 134.733C111.626 134.733 112.428 134.412 112.91 133.93C113.874 132.967 113.713 131.361 112.75 130.397L106.487 125.099Z" fill="#8D1B66"/>
<path d="M112.589 106.152C112.428 107.436 113.392 108.721 114.676 108.881L122.865 110.166C123.026 110.166 123.187 110.166 123.187 110.166C124.311 110.166 125.435 109.363 125.595 108.078C125.756 106.794 124.792 105.509 123.508 105.349L115.319 104.064C114.034 103.904 112.75 104.867 112.589 106.152Z" fill="#8D1B66"/>
<path d="M97.1744 37.5885C97.6562 38.2308 98.459 38.552 99.1013 38.552C99.583 38.552 100.065 38.3914 100.546 38.0703L114.034 28.2755C115.158 27.4727 115.319 25.867 114.516 24.9036C113.713 23.7796 112.107 23.619 111.144 24.4219L97.8167 34.056C96.6927 34.8589 96.3716 36.4646 97.1744 37.5885Z" fill="#8D1B66"/>
<path d="M112.75 40.4788L105.203 43.6902C103.918 44.1719 103.437 45.617 103.918 46.9016C104.24 47.865 105.203 48.3467 106.166 48.3467C106.487 48.3467 106.809 48.3467 107.13 48.1861L114.676 44.9748C115.961 44.4931 116.443 43.0479 115.961 41.7634C115.479 40.6394 114.034 39.9971 112.75 40.4788Z" fill="#8D1B66"/>
<path d="M92.3574 30.3629C93.1602 30.3629 93.963 30.0418 94.4448 29.239L99.1013 22.495C99.9041 21.3711 99.583 19.7654 98.459 19.1231C97.335 18.3203 95.7293 18.6414 95.087 19.7654L90.4305 26.5093C89.6277 27.6333 89.9488 29.239 91.0728 29.8812C91.3939 30.2024 91.8756 30.3629 92.3574 30.3629Z" fill="#8D1B66"/>
</svg>
