<svg width="410" height="302" viewBox="0 0 410 302" fill="none" xmlns="http://www.w3.org/2000/svg">
<path d="M210.816 118.745C210.295 120.1 209.958 121.49 209.812 122.905C209.648 124.468 209.691 126.039 209.989 127.596C210.168 128.528 210.394 129.457 210.735 130.365C212.33 134.564 215.502 137.903 219.68 139.774C221.953 140.793 224.368 141.306 226.849 141.306C229.934 141.306 232.885 140.464 235.462 139.001C236.856 138.211 238.135 137.24 239.262 136.093C240.269 135.071 241.139 133.906 241.861 132.639C242.068 132.274 242.304 131.925 242.483 131.538C242.483 131.538 276.793 58.8463 276.867 58.6985C276.938 58.5416 277.902 55.7604 278.106 54.6413C279.453 47.3172 275.681 39.7366 268.421 36.4818C266.154 35.4622 263.739 34.9494 261.258 34.9494C256.03 34.9494 251.168 37.3023 247.94 41.1393C247.033 42.2223 246.234 43.4017 245.624 44.7079C245.627 44.6958 245.63 44.6837 245.636 44.6747L245.618 44.7109C245.614 44.7139 245.611 44.723 245.605 44.729L211.24 117.554C211.06 117.943 210.964 118.347 210.816 118.745Z" fill="#999999"/>
<path d="M226.292 38.702C227.02 39.4139 227.494 40.343 227.841 41.3595C228.655 43.7697 228.519 46.8556 227.844 49.9838C227.497 51.5795 227.032 53.1632 226.475 54.6624C226.264 55.2385 226.05 55.8207 225.812 56.3637C225.462 57.1933 225 58.1585 224.468 59.1781C219.81 68.1523 207.824 83.2349 179.675 84.17C179.659 84.17 179.637 84.173 179.622 84.173L167.893 107.961C175.221 109.648 188.263 113.635 199.567 122.229L237.801 41.2087C238.426 39.8875 238.792 38.527 239.043 37.1545C240.381 29.8213 236.618 22.2378 229.358 18.989C227.085 17.9754 224.669 17.4566 222.195 17.4566C216.967 17.4566 212.107 19.8065 208.883 23.6465C207.967 24.7294 207.167 25.9119 206.548 27.2181C206.554 27.206 206.554 27.2 206.567 27.1879L206.548 27.2181L206.539 27.2392L201.707 37.4803H225.035L226.292 38.702Z" fill="#999999"/>
<path d="M181.028 37.4773H185.215H192.239L198.703 23.7551C199.322 22.4339 199.691 21.0704 199.939 19.7009C201.28 12.3738 197.517 4.79024 190.257 1.53843C187.978 0.524875 185.568 0 183.091 0C177.863 0 173 2.3559 169.776 6.19292C168.869 7.27585 168.067 8.45833 167.45 9.7675C167.45 9.77353 167.438 9.77957 167.438 9.7856L154.39 37.4773H168.68H181.028Z" fill="#999999"/>
<path d="M198.733 23.7123L198.742 23.6918L198.733 23.7123L198.719 23.7505L198.733 23.7123Z" fill="#999999"/>
<path d="M272.978 86.9965H272.977V86.9976L272.978 86.9965Z" fill="#999999"/>
<path d="M240.145 136.503L240.154 136.492L240.148 136.494L240.145 136.503Z" fill="#999999"/>
<path d="M240.161 136.47L240.155 136.481V136.484L240.161 136.47Z" fill="#999999"/>
<path d="M302.802 100.378C302.802 98.4955 301.724 94.6012 301.681 94.565C299.25 88.185 292.994 83.621 285.604 83.621C284.052 83.621 282.572 83.8865 281.141 84.2635C278.654 84.9151 276.409 86.0946 274.498 87.6752C272.256 89.5364 270.528 91.9134 269.496 94.6585C269.484 94.6947 269.478 94.7369 269.459 94.7731L247.968 139.991H247.975C247.34 141.339 247.021 142.745 246.946 144.144C246.922 144.645 246.946 145.14 246.987 145.629C247.315 149.565 249.737 153.224 253.676 154.989C255.547 155.831 257.563 156.081 259.53 155.885C262.094 155.625 264.569 154.582 266.473 152.88C267.387 152.063 268.143 151.07 268.737 149.978L279.902 126.489L287.71 129.997L288.484 128.359L276.895 152.923L276.877 152.959C276.685 153.366 276.452 153.74 276.223 154.123C275.743 154.962 275.21 155.776 274.619 156.533C273.408 158.099 271.955 159.45 270.348 160.585C267.232 162.796 263.494 164.153 259.527 164.346C259.183 164.367 258.852 164.409 258.514 164.409H258.511C255.59 164.409 252.753 163.8 250.077 162.606C246.076 160.808 243.004 157.882 240.984 154.401C240.012 152.72 239.321 150.911 238.885 149.028C238.72 148.325 238.587 147.623 238.504 146.902C237.172 147.565 235.803 148.144 234.363 148.576C231.96 149.294 229.429 149.686 226.852 149.686C226.852 149.686 226.852 149.686 226.849 149.686C223.861 149.686 221.863 149.167 219.073 148.187C220.658 153.242 221.646 158.829 221.646 165.17V196.922H213.046V165.17C213.046 157.565 210.605 151.125 208.097 145.629C196.346 119.852 162.789 115.394 161.077 115.186L155.149 114.462L174.183 75.8444H176.893C177.612 75.8444 178.225 75.7569 178.913 75.7388C180.579 75.6906 182.239 75.6393 183.769 75.4855C200.174 73.8294 209.174 66.3816 213.931 59.9956C214.343 59.4436 214.703 58.8886 215.065 58.3426C215.907 57.0575 216.61 55.8027 217.202 54.5779C217.88 53.1813 218.407 51.845 218.803 50.6173C219.407 48.7229 219.726 47.0759 219.819 45.8572H148.654C140.137 45.8572 132.692 50.2553 128.523 56.8373C127.551 58.3757 126.752 60.0228 126.163 61.7693L103.808 108.465L102.659 110.866C101.557 113.527 100.934 116.429 100.934 119.478C100.934 123.647 102.09 127.548 104.075 130.923L106.494 134.302L161.43 205.163V301.643H264.659V301.652H273.259L273.265 230.435L300.585 176.267C300.969 175.595 301.337 174.922 301.628 174.195C302.347 172.403 302.765 170.47 302.799 168.44C302.805 168.337 302.802 100.378 302.802 100.378Z" fill="#999999"/>
<path d="M86.5151 205.044V180.921L26.0744 124.995L86.5151 69.0682V44.9412L0 124.995L86.5151 205.044Z" fill="black"/>
<path d="M322.99 205.044V180.921L383.431 124.995L322.99 69.0682V44.9412L409.505 124.995L322.99 205.044Z" fill="black"/>
</svg>
